<?xml version="1.0" standalone="no"?>
<!DOCTYPE svg PUBLIC "-//W3C//DTD SVG 20010904//EN"
 "http://www.w3.org/TR/2001/REC-SVG-20010904/DTD/svg10.dtd">
<svg version="1.0" xmlns="http://www.w3.org/2000/svg"
 width="16.000000pt" height="16.000000pt" viewBox="0 0 16.000000 16.000000"
 preserveAspectRatio="xMidYMid meet">
<metadata>
Created by potrace 1.11, written by Peter Selinger 2001-2013
</metadata>
<g transform="translate(0.000000,16.000000) scale(0.004000,-0.004000)"
fill="#000000" stroke="none">
<path d="M1372 3993 c-7 -3 -20 -19 -29 -36 -27 -53 -83 -273 -87 -347 -2 -25
-9 -103 -16 -175 -17 -171 -7 -456 20 -580 20 -96 42 -147 78 -183 12 -12 22
-29 22 -37 0 -9 7 -27 17 -41 12 -19 18 -61 23 -172 5 -101 12 -159 24 -184 9
-21 18 -38 21 -38 2 0 20 14 40 31 19 17 35 27 35 21 0 -5 12 -21 27 -36 23
-24 70 -126 57 -126 -3 0 2 -7 10 -16 41 -41 -9 -128 -91 -159 -26 -10 -60
-27 -74 -38 -26 -19 -27 -19 -72 2 -37 17 -61 21 -120 17 -93 -4 -123 -23
-138 -82 -6 -24 -17 -48 -24 -54 -16 -13 -43 -3 -50 20 -5 15 -11 16 -45 8
-36 -9 -40 -13 -40 -43 0 -25 -7 -37 -37 -58 -21 -15 -39 -23 -41 -17 -5 13
-22 13 -22 0 0 -6 -14 -23 -32 -39 -28 -25 -30 -31 -19 -45 9 -11 10 -16 2
-16 -6 0 -11 -11 -11 -24 0 -19 -6 -25 -27 -28 -24 -3 -28 -8 -31 -40 -3 -34
-7 -39 -55 -60 -29 -12 -85 -40 -126 -61 -41 -22 -95 -45 -120 -53 -25 -7 -73
-30 -106 -50 -33 -21 -83 -50 -111 -66 -29 -16 -60 -40 -69 -55 -27 -41 -66
-73 -88 -73 -21 0 -21 5 3 120 5 25 16 88 25 140 9 52 21 118 27 145 21 104
25 135 16 135 -4 0 -8 -9 -8 -20 0 -11 -7 -23 -15 -26 -9 -4 -15 -19 -15 -40
0 -19 -5 -34 -11 -34 -6 0 -9 -10 -8 -22 2 -13 -12 -70 -30 -128 -18 -58 -36
-114 -39 -125 -4 -11 -8 -287 -9 -613 l-3 -592 692 1 c381 0 687 3 681 6 -7 2
-13 12 -13 20 0 12 -3 13 -14 4 -10 -8 -16 -9 -21 -1 -3 5 1 13 10 16 14 6 13
9 -5 21 -12 8 -30 13 -40 10 -14 -4 -17 -1 -12 12 5 13 3 14 -9 5 -17 -14 -47
-4 -73 25 -23 26 -14 27 25 4 26 -16 31 -16 39 -3 7 12 12 12 22 2 6 -6 19
-12 28 -12 9 0 25 -8 36 -17 11 -10 36 -27 57 -37 20 -10 39 -27 42 -37 6 -18
49 -19 1281 -19 l1274 0 0 355 0 356 -31 -17 c-36 -18 -74 -12 -83 13 -10 29
-61 121 -78 140 -8 10 -20 33 -28 50 -7 18 -17 30 -22 27 -6 -4 -8 2 -6 12 2
11 -13 51 -34 91 -33 64 -36 75 -26 103 7 23 7 35 0 42 -8 8 -8 17 -1 30 9 16
6 25 -12 44 -13 14 -24 32 -25 40 -2 9 -12 26 -24 39 -19 20 -20 24 -6 32 14
7 10 15 -25 50 -35 35 -45 41 -72 37 -25 -4 -35 -1 -45 16 -7 12 -11 24 -9 27
3 2 -2 13 -11 23 -47 51 -53 70 -57 160 -2 54 -24 130 -38 130 -5 0 -7 -7 -3
-15 3 -8 3 -15 0 -15 -13 0 -94 53 -94 62 0 5 -4 7 -9 3 -5 -3 -19 7 -30 21
-23 29 -38 27 -23 -3 48 -95 92 -197 92 -211 0 -9 -9 -32 -20 -50 -22 -35 -26
-57 -10 -47 6 3 10 1 10 -4 0 -6 -4 -11 -10 -11 -5 0 -10 -8 -10 -17 0 -10
-12 -36 -25 -58 -31 -50 -33 -70 -6 -55 28 15 77 12 91 -5 28 -33 -73 -113
-165 -131 -19 -3 -35 -10 -35 -16 0 -5 -4 -7 -9 -4 -5 4 -28 -11 -50 -32 -33
-30 -41 -45 -41 -73 0 -36 -33 -162 -56 -216 -8 -17 -14 -35 -14 -40 0 -18
-36 -43 -62 -43 -31 0 -56 26 -64 67 -5 25 -14 34 -48 47 -23 9 -47 16 -53 16
-7 0 -17 10 -24 21 -9 18 -7 27 10 50 24 32 27 59 7 59 -8 0 -16 6 -19 14 -4
9 -26 17 -54 21 -26 3 -57 10 -68 14 -93 37 -109 60 -70 101 23 24 24 28 10
34 -9 3 -25 6 -36 6 -10 0 -19 4 -19 9 0 5 -15 18 -32 29 -29 17 -41 19 -96
11 -35 -5 -68 -11 -72 -14 -17 -10 -266 -7 -315 4 -33 7 -58 20 -74 38 -13 16
-34 40 -46 55 -37 41 -59 89 -46 98 15 9 -5 104 -26 126 -8 8 -17 14 -18 12
-2 -2 -5 -41 -8 -86 -3 -46 -8 -86 -11 -90 -12 -12 -5 216 8 268 8 30 17 91
21 135 4 44 9 84 12 89 3 5 12 -9 19 -30 17 -48 17 -44 -1 -44 -9 0 -15 -9
-15 -25 0 -14 6 -25 13 -25 9 0 9 -2 0 -8 -6 -4 -13 -18 -16 -32 -2 -14 -2
-19 0 -12 8 22 25 13 18 -10 -6 -18 -5 -20 5 -11 7 6 12 23 13 37 0 14 2 26 6
26 9 0 6 133 -3 148 -4 7 -2 19 4 27 10 12 7 17 -14 26 -30 14 -33 37 -10 80
11 22 35 39 90 64 56 26 95 53 148 105 99 96 132 93 143 -13 10 -102 -60 -262
-129 -291 -24 -10 -27 -14 -13 -19 14 -6 16 -21 14 -94 0 -49 2 -105 6 -125 9
-47 58 -93 144 -137 l63 -32 71 21 c40 12 116 32 169 45 60 14 117 35 149 55
55 33 86 60 72 60 -4 0 -1 6 7 13 8 7 16 28 17 47 1 19 2 41 2 48 2 27 35 7
42 -25 5 -25 2 -36 -12 -49 -28 -25 -23 -37 9 -21 15 8 38 17 52 20 18 4 31
19 43 45 23 53 22 59 -18 66 -49 10 -45 29 5 24 36 -3 41 -1 47 20 3 13 -1 30
-9 40 -26 30 -28 51 -9 83 17 28 20 29 30 12 13 -22 14 -8 2 34 -7 22 -5 50 4
90 19 77 18 123 -1 191 -17 60 -48 127 -62 136 -4 2 6 -23 23 -57 27 -55 30
-71 30 -152 0 -82 -3 -96 -33 -158 -19 -38 -36 -67 -37 -65 -2 2 8 28 23 58
24 48 27 67 27 150 0 77 -5 105 -23 146 -23 50 -88 124 -133 150 -109 62 -232
65 -341 8 -27 -13 -48 -21 -48 -16 0 4 26 21 58 36 107 54 259 45 358 -19 l39
-26 -27 25 c-15 13 -53 34 -85 46 -49 18 -74 21 -161 18 -72 -2 -105 -7 -111
-16 -7 -11 -9 -11 -14 2 -4 10 -1 16 8 16 8 0 15 4 15 8 0 14 104 42 153 42
49 0 111 -12 187 -36 38 -12 42 -12 27 0 -12 9 -14 16 -8 21 6 3 11 2 11 -4 0
-6 34 -45 76 -87 42 -42 70 -74 63 -70 -10 5 -9 3 1 -6 8 -7 16 -22 16 -33 1
-11 6 -45 10 -75 5 -30 8 -85 7 -122 -2 -62 0 -66 22 -72 14 -4 32 -17 41 -31
18 -28 31 -32 36 -10 7 32 97 125 160 165 83 53 129 98 57 57 -25 -15 -57 -27
-70 -27 -21 0 -62 -33 -64 -50 0 -3 -6 -4 -12 -4 -7 1 -13 -2 -13 -7 0 -13
-44 -11 -57 2 -7 7 -8 21 -2 42 13 44 -7 59 -20 16 -10 -32 -11 -32 -7 -4 10
73 37 172 54 195 41 56 190 116 297 119 17 1 37 6 45 11 25 15 0 29 -65 34
-33 3 -52 3 -42 0 20 -6 23 -24 4 -24 -19 0 -77 30 -77 39 0 5 -11 6 -25 3
-14 -2 -23 -8 -20 -12 3 -4 -2 -13 -10 -20 -12 -10 -21 -10 -42 -1 -22 10 -28
9 -47 -11 -11 -12 -19 -30 -18 -40 6 -33 -22 -79 -55 -93 -23 -10 -32 -21 -35
-42 l-3 -28 -15 30 c-9 17 -22 29 -30 28 -11 -2 -23 25 -44 95 -34 116 -42
139 -64 172 -9 14 -17 28 -17 31 0 3 -9 22 -20 42 -19 36 -35 48 -35 27 0 -5
4 -10 10 -10 5 0 7 -15 5 -32 -4 -26 -3 -29 4 -13 7 14 10 16 11 5 1 -8 3 -23
5 -33 5 -25 -26 -30 -208 -31 -139 -1 -160 1 -168 16 -5 9 -9 22 -9 28 0 16
43 29 58 18 8 -7 12 -7 12 0 0 15 37 21 49 9 8 -8 11 -6 11 6 0 13 -9 17 -45
17 -31 0 -45 4 -45 13 0 21 12 28 25 17 9 -8 14 -6 18 4 5 12 27 14 121 12 89
-3 113 -1 109 9 -2 7 0 16 6 20 6 3 11 1 11 -4 0 -6 6 -11 13 -11 7 0 19 -10
27 -21 30 -44 68 -81 73 -72 8 13 -14 143 -24 143 -5 0 -9 11 -9 25 0 14 5 25
10 25 13 0 13 100 0 120 -8 12 -10 10 -10 -10 l0 -25 -18 28 c-10 15 -21 25
-24 22 -3 -3 -9 19 -13 49 -5 41 -12 60 -28 71 -15 10 -23 11 -28 4 -4 -7 -11
1 -17 17 -8 23 -9 15 -6 -41 3 -50 2 -66 -5 -55 -6 8 -11 27 -11 42 0 50 -20
41 -21 -9 l-1 -48 -11 55 c-11 54 -11 54 -17 20 l-6 -35 -6 35 c-4 19 -5 55
-3 78 2 24 0 54 -5 65 -5 12 -9 16 -9 9 -2 -27 -21 0 -21 29 0 18 -4 28 -10
24 -5 -3 -10 -19 -10 -34 0 -15 -3 -31 -7 -35 -10 -9 -10 -13 -12 -76 -1 -47
-2 -49 -21 -38 -12 8 -20 26 -23 53 -3 34 -4 32 -5 -15 -1 -30 -8 -87 -15
-125 -14 -74 -6 -121 19 -111 13 5 54 -62 54 -88 0 -12 -24 -28 -62 -40 -26
-8 -52 53 -45 104 6 49 -1 80 -17 74 -9 -3 -12 4 -11 23 1 15 0 20 -2 11 -2
-10 -9 -18 -14 -18 -6 0 -7 36 -3 93 4 52 3 120 -1 153 -8 57 -8 58 -17 26 -5
-18 -13 -30 -18 -27 -6 4 -10 -11 -10 -34 0 -40 -14 -62 -23 -39 -3 7 -6 -4
-6 -26 -1 -28 -5 -37 -15 -33 -10 4 -16 -9 -21 -51 -9 -74 -18 -87 -26 -37
l-6 40 -2 -49 c-1 -61 -15 -51 -17 12 0 26 -2 67 -3 92 -2 41 -3 43 -13 20 -6
-15 -12 -20 -15 -12 -3 6 -8 12 -12 12 -14 0 -35 -76 -33 -120 l3 -45 -15 29
c-9 15 -16 36 -17 45 -2 28 -17 -32 -18 -71 -1 -20 -5 -39 -10 -42 -11 -7 -18
75 -9 109 4 18 2 25 -7 25 -8 0 -16 -10 -18 -22 -2 -13 -5 2 -6 32 -1 55 -21
111 -21 62 0 -13 -4 -20 -10 -17 -6 4 -10 27 -10 53 0 26 -3 65 -7 86 -19 93
22 346 48 304 12 -19 11 -28 -5 -28 -15 0 -26 -71 -25 -155 1 -44 2 -47 9 -20
4 17 11 56 15 88 9 83 20 63 24 -47 2 -53 15 -17 26 71 6 52 15 88 23 91 6 2
12 -3 12 -12 0 -9 5 -16 10 -16 6 0 10 -28 10 -64 0 -36 5 -66 11 -68 5 -2 11
-12 13 -23 5 -32 21 -18 21 18 0 20 -5 31 -12 30 -15 -3 -17 25 -4 45 6 10 10
9 14 -7 4 -15 10 -19 23 -14 14 5 16 2 10 -20 -8 -32 10 -46 20 -15 6 20 8 20
19 5 22 -30 27 -19 23 53 -2 39 1 71 6 73 6 2 11 29 11 60 2 65 11 83 21 41 4
-16 9 -33 13 -39 10 -17 39 -146 36 -164 -1 -9 0 -10 2 -3 3 7 8 10 13 7 5 -3
16 2 25 11 12 12 13 20 5 28 -8 8 -13 7 -20 -4 -5 -8 -10 -10 -10 -4 0 11 32
44 43 44 4 0 7 -22 7 -49 0 -28 5 -53 12 -57 11 -7 6 105 -8 184 -8 42 16 44
34 2 16 -35 32 -38 58 -9 14 16 15 23 7 26 -19 7 -17 63 2 63 9 0 15 -9 15
-24 0 -14 5 -28 11 -32 7 -4 7 -9 2 -13 -6 -3 -2 -18 8 -36 17 -27 19 -28 19
-8 0 12 5 23 10 25 7 2 5 17 -5 42 -9 21 -14 48 -12 60 4 17 5 16 6 -6 0 -15
7 -31 14 -35 16 -11 58 -113 51 -125 -4 -6 -2 -20 4 -31 5 -12 14 -33 19 -46
5 -14 12 -21 15 -15 3 5 1 20 -5 34 -13 33 -18 155 -7 183 5 12 9 17 9 10 1
-6 10 -9 21 -6 16 4 20 0 20 -21 0 -35 18 -34 22 2 2 21 8 26 24 24 13 -2 24
4 29 15 5 15 9 12 22 -17 20 -46 29 -22 13 36 -10 35 -10 47 0 59 11 13 -70
15 -731 14 -409 0 -750 -3 -757 -6z m1408 -69 c0 -8 -4 -12 -10 -9 -5 3 -10
13 -10 21 0 8 5 12 10 9 6 -3 10 -13 10 -21z m-103 -31 c-3 -10 -5 -2 -5 17 0
19 2 27 5 18 2 -10 2 -26 0 -35z m-817 -100 c0 -12 -5 -25 -11 -28 -6 -4 -8
-13 -5 -21 3 -8 -1 -14 -10 -14 -12 0 -15 6 -9 23 4 12 9 37 12 56 4 23 8 29
14 20 5 -8 9 -24 9 -36z m440 13 c0 -3 -4 -8 -10 -11 -5 -3 -10 -1 -10 4 0 6
5 11 10 11 6 0 10 -2 10 -4z m-345 -201 c6 -27 8 -28 15 -10 6 16 9 11 15 -24
11 -67 8 -117 -10 -144 -10 -16 -16 -48 -16 -91 -1 -36 -4 -66 -8 -66 -17 0
-31 27 -32 60 -1 33 -2 33 -10 10 -7 -19 -7 -16 -3 15 3 22 8 50 11 63 6 26
-13 31 -20 5 -4 -14 -5 -12 -6 5 -1 14 5 22 15 22 11 0 14 5 9 18 -10 26 -25
134 -19 144 10 16 23 7 27 -19 4 -26 4 -26 6 5 1 22 -3 32 -14 32 -20 0 -19
20 3 36 18 14 21 10 37 -61z m-184 -1 c-9 -28 -9 -29 -10 -3 -1 14 2 29 6 32
11 12 13 2 4 -29z m-81 -51 c0 -5 -5 -15 -10 -23 -8 -12 -10 -11 -10 8 0 12 5
22 10 22 6 0 10 -3 10 -7z m62 -24 c3 -18 2 -46 -3 -63 l-7 -31 -1 29 c-1 21
-5 27 -16 22 -15 -5 -15 13 1 62 7 23 22 12 26 -19z m78 -27 c0 -32 4 -62 9
-67 13 -15 24 -118 11 -110 -5 3 -10 22 -10 41 0 19 -4 34 -10 34 -5 0 -10
-17 -10 -37 0 -50 -10 -83 -24 -83 -17 0 -10 190 10 263 11 37 24 14 24 -41z
m87 -244 c-3 -8 -6 -5 -6 6 -1 11 2 17 5 13 3 -3 4 -12 1 -19z m412 -32 c-9
-8 -10 -7 -5 7 3 10 7 26 7 35 1 9 4 6 6 -7 3 -13 -1 -28 -8 -35z m-202 -18
c-3 -8 -6 -5 -6 6 -1 11 2 17 5 13 3 -3 4 -12 1 -19z m170 0 c-3 -8 -6 -5 -6
6 -1 11 2 17 5 13 3 -3 4 -12 1 -19z m490 -40 c-3 -7 -5 -2 -5 12 0 14 2 19 5
13 2 -7 2 -19 0 -25z m-147 -28 c0 -5 -4 -10 -10 -10 -5 0 -10 5 -10 10 0 6 5
10 10 10 6 0 10 -4 10 -10z m7 -72 c-3 -7 -5 -2 -5 12 0 14 2 19 5 13 2 -7 2
-19 0 -25z m77 -4 c23 -9 20 -44 -3 -44 -11 0 -22 4 -25 9 -7 10 -46 3 -46 -8
0 -4 -13 -6 -30 -3 -16 2 -30 9 -30 14 0 6 14 8 31 6 22 -4 33 0 40 14 10 18
34 23 63 12z m-837 -46 c-3 -8 -6 -5 -6 6 -1 11 2 17 5 13 3 -3 4 -12 1 -19z
m253 -270 c0 -6 -7 -5 -15 2 -8 7 -15 17 -15 22 0 6 7 5 15 -2 8 -7 15 -17 15
-22z m-30 -22 c0 -8 -4 -17 -9 -21 -12 -7 -24 12 -16 25 9 15 25 12 25 -4z
m97 -2 c-3 -3 -12 -4 -19 -1 -8 3 -5 6 6 6 11 1 17 -2 13 -5z m-653 -88 c-3
-7 6 -23 20 -34 33 -25 33 -42 2 -42 -15 0 -33 -11 -46 -27 l-22 -28 8 65 c6
59 16 79 36 80 4 0 5 -6 2 -14z m1326 -2 c0 -8 -4 -12 -10 -9 -5 3 -10 10 -10
16 0 5 5 9 10 9 6 0 10 -7 10 -16z m35 -22 c-8 -8 -25 10 -25 26 0 13 2 13 14
-4 8 -10 13 -21 11 -22z m-1408 6 c-3 -8 -6 -5 -6 6 -1 11 2 17 5 13 3 -3 4
-12 1 -19z m589 -13 c-5 -15 5 -18 49 -16 11 0 14 -2 8 -5 -7 -3 -13 -10 -13
-15 0 -6 5 -7 10 -4 6 3 10 1 10 -4 0 -6 -3 -11 -7 -12 -5 0 -27 -3 -50 -5
-33 -4 -43 -2 -43 10 0 8 -3 21 -6 30 -4 12 0 16 15 16 12 0 21 5 21 10 0 6 3
10 6 10 3 0 4 -7 0 -15z m861 -47 c-3 -8 -6 -5 -6 6 -1 11 2 17 5 13 3 -3 4
-12 1 -19z m-1080 -65 c-29 -157 -38 -198 -46 -206 -12 -12 -54 11 -48 28 3 7
-8 26 -24 41 -22 21 -28 35 -24 51 3 12 1 33 -4 46 -11 27 -14 25 74 52 67 21
78 19 72 -12z m398 -265 c16 -86 15 -95 -9 -50 -20 38 -24 92 -7 92 5 0 12
-19 16 -42z m55 22 c0 -3 34 -27 75 -55 41 -27 74 -55 75 -62 0 -6 4 -13 8
-15 4 -1 18 -18 31 -35 l22 -33 -33 0 c-69 1 -166 68 -193 133 -27 67 -28 76
-5 74 11 -1 20 -4 20 -7z m-17 -168 c42 -44 104 -79 169 -96 29 -8 44 -15 32
-15 -38 -2 -128 31 -170 61 -49 35 -100 102 -109 144 -6 24 -2 22 20 -16 14
-25 41 -60 58 -78z m-2 59 c-11 -7 -7 -13 15 -27 45 -29 63 -47 58 -56 -3 -4
13 -15 36 -24 22 -9 39 -18 37 -20 -6 -6 -79 26 -105 47 -54 42 -75 89 -39 89
8 0 7 -3 -2 -9z m-544 -133 c-3 -7 -5 -2 -5 12 0 14 2 19 5 13 2 -7 2 -19 0
-25z m-794 -369 c14 -10 -19 -18 -34 -8 -12 8 -12 10 1 18 8 6 17 7 20 3 3 -4
9 -10 13 -13z m-63 -35 c0 -2 -7 -4 -15 -4 -8 0 -15 4 -15 10 0 5 7 7 15 4 8
-4 15 -8 15 -10z m837 -76 c-3 -8 -6 -5 -6 6 -1 11 2 17 5 13 3 -3 4 -12 1
-19z m-47 -175 c-9 -14 -10 -7 -6 31 3 27 7 58 8 70 1 12 3 -3 5 -31 2 -29 -1
-61 -7 -70z m-13 -60 c-3 -10 -5 -4 -5 12 0 17 2 24 5 18 2 -7 2 -21 0 -30z
m1596 -106 c3 -18 1 -83 -3 -144 -7 -88 -14 -121 -34 -161 -14 -28 -26 -60
-26 -71 0 -11 -4 -23 -10 -26 -5 -3 -10 -1 -10 4 0 14 -36 14 -61 1 -17 -10
-19 -7 -19 23 0 18 4 37 10 43 6 6 6 21 -2 42 -13 33 -22 39 -33 23 -8 -13
-67 -42 -73 -36 -3 3 0 5 6 5 7 0 12 5 12 11 0 6 -9 8 -20 4 -23 -7 -25 3 -11
52 5 17 6 35 1 39 -4 5 -2 25 5 44 8 19 14 27 14 18 1 -9 4 -19 9 -22 4 -2 6
14 4 37 -2 28 0 38 6 28 8 -10 12 -9 24 8 10 14 21 19 32 15 9 -3 16 -1 16 5
0 6 -6 11 -12 12 -8 0 -7 3 2 6 8 3 34 19 57 35 81 55 108 56 116 5z m-1590
-7 c3 -11 1 -23 -4 -26 -5 -3 -9 6 -9 20 0 31 6 34 13 6z m-10 -100 c4 -37 11
-58 22 -65 10 -5 33 -20 52 -32 18 -13 40 -23 47 -23 15 0 72 -58 64 -66 -4
-3 2 -14 12 -24 11 -11 26 -43 34 -72 36 -124 18 -182 -42 -139 -15 10 -32 20
-37 22 -24 9 -177 105 -222 138 -26 20 -49 44 -51 53 -2 9 10 38 26 64 16 27
42 84 57 127 15 42 29 76 30 75 2 -2 5 -28 8 -58z m167 -35 c0 -11 -11 -15
-37 -15 -38 0 -38 0 -13 14 34 19 50 19 50 1z m1760 -7 c0 -5 8 -22 19 -36 38
-55 91 -161 81 -167 -10 -6 -46 52 -90 147 -33 73 -35 82 -20 73 6 -3 10 -11
10 -17z m-149 -95 c13 -40 17 -404 4 -443 -8 -26 -25 -26 -25 0 0 11 -6 20
-14 20 -19 0 -27 29 -25 87 3 63 -9 113 -27 113 -15 0 -20 41 -6 54 4 4 7 15
7 24 1 28 16 146 21 165 3 10 15 17 29 17 18 0 26 -8 36 -37z m304 -334 c16 0
14 -3 -8 -11 -31 -11 -55 1 -42 22 5 8 10 9 18 1 6 -6 20 -11 32 -12z m-2765
-364 c0 -8 -4 -15 -10 -15 -5 0 -10 7 -10 15 0 8 5 15 10 15 6 0 10 -7 10 -15z
m42 -41 c12 -7 -3 -34 -19 -34 -8 0 -11 -5 -7 -11 4 -8 1 -8 -14 0 -13 7 -19
17 -16 26 4 9 0 15 -10 15 -9 0 -16 5 -16 11 0 10 62 5 82 -7z m58 -53 c0 -5
14 -14 30 -21 25 -10 62 -50 47 -50 -16 0 -70 36 -87 57 -16 21 -22 23 -35 13
-17 -15 -21 0 -3 18 12 12 48 -1 48 -17z m148 -120 c3 -8 -1 -12 -9 -9 -7 2
-15 10 -17 17 -3 8 1 12 9 9 7 -2 15 -10 17 -17z"/>
<path d="M2918 3993 c6 -2 18 -2 25 0 6 3 1 5 -13 5 -14 0 -19 -2 -12 -5z"/>
<path d="M2990 3851 c0 -5 7 -14 15 -21 16 -14 18 -10 9 14 -6 17 -24 22 -24
7z"/>
<path d="M2785 3840 c-4 -6 3 -10 14 -10 25 0 27 6 6 13 -8 4 -17 2 -20 -3z"/>
<path d="M2780 3783 c0 -23 15 -39 24 -25 3 5 -1 18 -9 28 -14 18 -14 18 -15
-3z"/>
<path d="M2310 3749 c0 -5 5 -7 10 -4 6 3 10 8 10 11 0 2 -4 4 -10 4 -5 0 -10
-5 -10 -11z"/>
<path d="M2402 3605 c0 -16 2 -22 5 -12 2 9 2 23 0 30 -3 6 -5 -1 -5 -18z"/>
<path d="M2071 3538 c-1 -21 4 -38 9 -38 11 0 11 14 0 50 -7 22 -8 21 -9 -12z"/>
<path d="M2024 3517 c-2 -7 0 -24 5 -38 9 -22 10 -21 10 14 1 37 -5 48 -15 24z"/>
<path d="M2122 3465 c0 -16 2 -22 5 -12 2 9 2 23 0 30 -3 6 -5 -1 -5 -18z"/>
<path d="M2150 3466 c0 -7 6 -19 14 -25 11 -9 12 -6 8 14 -5 26 -22 35 -22 11z"/>
<path d="M2060 3425 c0 -8 5 -15 10 -15 6 0 10 7 10 15 0 8 -4 15 -10 15 -5 0
-10 -7 -10 -15z"/>
<path d="M2641 3414 c0 -11 3 -14 6 -6 3 7 2 16 -1 19 -3 4 -6 -2 -5 -13z"/>
<path d="M2166 3405 c-9 -24 -7 -57 3 -51 13 8 20 42 11 56 -5 8 -9 7 -14 -5z"/>
<path d="M2301 3374 c0 -11 3 -14 6 -6 3 7 2 16 -1 19 -3 4 -6 -2 -5 -13z"/>
<path d="M2450 3376 c0 -9 5 -16 10 -16 6 0 10 4 10 9 0 6 -4 13 -10 16 -5 3
-10 -1 -10 -9z"/>
<path d="M2740 3375 c0 -8 5 -15 10 -15 6 0 10 7 10 15 0 8 -4 15 -10 15 -5 0
-10 -7 -10 -15z"/>
<path d="M3220 3338 c0 -60 -16 -128 -30 -128 -5 0 -7 -6 -4 -14 9 -22 -14
-29 -25 -7 -13 23 -15 91 -3 91 5 0 7 14 4 30 -5 36 -8 37 -33 8 l-18 -23 -1
33 c0 17 -4 32 -10 32 -5 0 -10 -23 -10 -51 0 -31 -4 -48 -10 -44 -13 8 -13
-23 2 -101 12 -70 37 -89 39 -31 1 17 7 -10 15 -61 7 -51 18 -109 24 -130 5
-20 10 -49 10 -64 0 -44 36 -47 70 -6 22 27 47 41 114 63 74 25 86 32 86 51 0
12 6 25 13 27 7 3 8 6 1 6 -8 1 -7 15 4 47 11 34 12 48 3 57 -8 8 -11 7 -11
-6 0 -9 -7 -17 -15 -17 -8 0 -15 -9 -15 -19 0 -11 -4 -23 -10 -26 -6 -4 -10 7
-10 24 0 39 -22 121 -32 121 -4 0 -5 7 -1 16 5 14 3 15 -14 5 -19 -10 -21 -7
-25 24 -2 19 0 35 4 35 4 0 8 12 8 27 0 25 -1 26 -14 8 -13 -18 -14 -17 -21
13 -6 30 -18 37 -52 33 -7 -1 -13 5 -13 14 0 8 -4 15 -10 15 -5 0 -10 -24 -10
-52z m-90 -153 c0 -8 -4 -15 -10 -15 -5 0 -10 7 -10 15 0 8 5 15 10 15 6 0 10
-7 10 -15z"/>
<path d="M2441 3328 c2 -29 16 -86 18 -73 1 6 6 29 10 53 7 37 6 42 -10 42
-13 0 -19 -7 -18 -22z"/>
<path d="M2260 3320 c0 -19 3 -21 12 -12 9 9 9 15 0 24 -9 9 -12 7 -12 -12z"/>
<path d="M2901 3313 c-1 -22 -6 -33 -16 -33 -19 0 -19 -4 0 -40 9 -18 13 -40
9 -55 -3 -14 -3 -33 2 -42 4 -10 8 -21 8 -25 1 -3 4 -10 9 -14 4 -4 7 -16 7
-26 0 -29 18 -21 22 10 3 20 7 11 17 -35 8 -35 18 -63 22 -63 5 0 9 21 10 48
0 26 2 58 4 72 1 14 -1 30 -6 36 -5 6 -12 33 -15 60 -9 84 -14 100 -25 83 -7
-12 -9 -11 -9 3 0 11 -5 15 -14 12 -9 -4 -16 3 -19 18 -3 17 -5 15 -6 -9z"/>
<path d="M2792 3305 c0 -16 2 -22 5 -12 2 9 2 23 0 30 -3 6 -5 -1 -5 -18z"/>
<path d="M2870 3311 c0 -6 5 -13 10 -16 6 -3 10 1 10 9 0 9 -4 16 -10 16 -5 0
-10 -4 -10 -9z"/>
<path d="M3490 3290 c0 -5 5 -10 11 -10 5 0 7 5 4 10 -3 6 -8 10 -11 10 -2 0
-4 -4 -4 -10z"/>
<path d="M3430 3181 c0 -34 3 -38 20 -34 11 3 20 13 20 22 0 9 -9 24 -20 34
-20 16 -20 16 -20 -22z"/>
<path d="M2991 3194 c0 -11 3 -14 6 -6 3 7 2 16 -1 19 -3 4 -6 -2 -5 -13z"/>
<path d="M2987 2813 c-4 -3 -7 -15 -7 -25 0 -15 8 -18 60 -18 36 0 60 4 60 11
0 6 -9 8 -20 4 -16 -5 -20 -2 -21 17 -1 17 -3 18 -6 6 -5 -22 -23 -24 -23 -3
0 15 -31 21 -43 8z"/>
<path d="M681 2737 c-76 -38 -89 -57 -37 -57 30 0 39 -6 60 -37 14 -21 28 -56
32 -78 8 -47 30 -95 44 -95 5 0 17 11 26 25 16 25 15 28 -14 93 -43 94 -48
119 -27 142 17 19 13 40 -8 40 -7 -1 -41 -15 -76 -33z"/>
<path d="M2994 2725 c-10 -8 -14 -15 -8 -15 6 0 17 7 24 15 16 19 9 19 -16 0z"/>
<path d="M3600 2692 c0 -5 14 -21 31 -38 24 -23 29 -25 23 -9 -13 37 -54 72
-54 47z"/>
<path d="M2815 2570 c10 -11 20 -20 23 -20 3 0 -3 9 -13 20 -10 11 -20 20 -23
20 -3 0 3 -9 13 -20z"/>
<path d="M691 2224 c0 -11 3 -14 6 -6 3 7 2 16 -1 19 -3 4 -6 -2 -5 -13z"/>
<path d="M948 2215 c4 -13 12 -25 17 -25 16 -1 18 32 3 41 -22 14 -27 10 -20
-16z"/>
<path d="M3320 2172 c0 -9 -130 -62 -153 -62 -8 0 -18 -7 -21 -16 -5 -12 -2
-15 11 -9 57 23 168 9 302 -36 65 -23 81 -24 81 -4 0 8 -24 27 -52 41 -29 15
-77 42 -106 60 -56 36 -62 39 -62 26z"/>
<path d="M907 2103 c-4 -3 -7 -15 -7 -25 0 -24 -40 -78 -57 -78 -7 0 -13 -6
-13 -14 0 -7 -7 -19 -15 -26 -10 -8 -15 -30 -15 -60 0 -38 -4 -50 -17 -53 -17
-4 -17 -5 0 -6 23 -1 22 -11 -8 -62 -24 -44 -34 -99 -16 -99 5 0 12 18 16 40
4 26 12 40 22 40 9 0 12 6 9 18 -4 12 3 28 18 44 13 15 26 37 29 50 4 13 16
35 27 48 11 13 20 34 20 47 0 13 9 42 20 64 16 30 18 44 10 59 -12 22 -14 23
-23 13z"/>
<path d="M346 1853 c-9 -10 -7 -43 3 -43 11 0 21 39 11 45 -4 2 -10 2 -14 -2z"/>
<path d="M1742 1715 c0 -16 2 -22 5 -12 2 9 2 23 0 30 -3 6 -5 -1 -5 -18z"/>
<path d="M712 1660 c1 -13 9 -25 16 -28 17 -5 15 23 -4 39 -14 11 -15 10 -12
-11z"/>
<path d="M3499 1580 c-41 -10 1 -18 56 -10 l50 6 -41 5 c-23 2 -52 2 -65 -1z"/>
<path d="M3583 1553 c-18 -7 -16 -23 3 -23 9 0 12 -5 8 -12 -5 -9 -2 -9 9 1 9
7 17 17 17 21 0 11 -22 18 -37 13z"/>
<path d="M229 1388 c-6 -12 -5 -48 1 -48 8 0 20 25 20 41 0 8 -18 13 -21 7z"/>
<path d="M207 1288 c-7 -25 -3 -33 12 -23 13 8 15 45 2 45 -5 0 -11 -10 -14
-22z"/>
<path d="M1370 40 c0 -5 7 -10 16 -10 8 0 12 5 9 10 -3 6 -10 10 -16 10 -5 0
-9 -4 -9 -10z"/>
</g>
</svg>
